<?xml version="1.0" standalone="no"?>
<!DOCTYPE svg PUBLIC "-//W3C//DTD SVG 20010904//EN"
 "http://www.w3.org/TR/2001/REC-SVG-20010904/DTD/svg10.dtd">
<svg version="1.0" xmlns="http://www.w3.org/2000/svg"
 width="271.000000pt" height="271.000000pt" viewBox="0 0 271.000000 271.000000"
 preserveAspectRatio="xMidYMid meet">
<metadata>
Created by potrace 1.14, written by Peter Selinger 2001-2017
</metadata>
<g transform="translate(0.000000,271.000000) scale(0.100000,-0.100000)"
fill="#000000" stroke="none">
<path d="M0 1499 l0 -1081 25 16 c20 13 28 14 44 4 17 -10 27 -6 76 32 103 80
93 -3 100 816 4 395 8 757 9 804 8 209 18 415 21 420 1 3 -1 14 -5 25 -8 23
-99 43 -202 44 l-68 1 0 -1081z"/>
<path d="M970 2310 c0 -27 12 -60 21 -60 5 0 6 12 3 28 -8 31 -24 54 -24 32z"/>
<path d="M1143 2275 c-9 -29 -9 -35 3 -35 9 0 14 12 14 35 0 19 -1 35 -3 35
-2 0 -8 -16 -14 -35z"/>
<path d="M1860 2285 c-25 -14 -50 -25 -56 -25 -7 0 -20 -12 -30 -27 -9 -16
-26 -34 -36 -41 -33 -24 -57 -85 -53 -132 5 -46 22 -108 35 -125 4 -5 4 -19 0
-30 -8 -20 16 -75 32 -75 19 0 24 -2 46 -22 30 -29 28 -34 -15 -57 -49 -25
-95 -74 -123 -131 -29 -57 -27 -56 -47 -38 -12 10 -48 18 -101 22 l-83 7 -30
-32 c-16 -17 -29 -38 -29 -46 0 -9 -8 -13 -22 -11 -23 3 -23 5 -19 108 9 210
3 394 -14 442 -2 7 -7 37 -9 67 -3 29 -7 55 -8 56 -2 2 -37 6 -78 9 -41 3
-100 8 -130 11 -320 30 -290 30 -460 -11 -85 -20 -157 -40 -160 -45 -3 -5 -5
-43 -4 -86 1 -61 -3 -84 -17 -104 -42 -61 -42 -181 0 -254 14 -24 17 -53 16
-142 0 -103 -2 -114 -21 -128 -34 -23 -56 -80 -55 -147 0 -49 7 -74 38 -137
l38 -77 -1 -284 c0 -157 -4 -292 -8 -301 -5 -11 6 -21 44 -39 46 -22 51 -26
45 -49 -7 -27 -12 -32 -59 -57 -37 -20 -160 -16 -241 8 -33 10 -96 21 -140 24
-44 3 -86 7 -92 9 -8 3 -13 -6 -13 -23 0 -24 6 -30 49 -46 27 -9 57 -24 67
-31 11 -8 -10 -3 -44 11 -35 14 -66 23 -69 21 -7 -8 275 -143 337 -161 65 -20
180 -31 180 -18 0 5 -21 10 -46 11 -26 0 -72 9 -103 17 -57 17 -194 74 -189
80 2 1 35 -6 73 -17 88 -24 214 -25 284 -2 56 18 102 58 122 105 6 16 16 27
22 25 17 -5 46 -49 56 -83 19 -65 -38 -111 -149 -121 -33 -3 -60 -9 -60 -14 0
-7 47 -5 107 6 37 6 93 36 108 59 18 25 20 87 3 104 -26 26 1 18 102 -30 117
-56 103 -55 317 -23 13 2 49 -7 80 -19 70 -28 123 -55 106 -56 -7 0 -14 1 -15
2 -2 1 -14 -4 -27 -11 -16 -9 -20 -16 -13 -23 14 -14 180 -18 213 -6 23 9 23
10 5 24 -11 8 -34 14 -51 14 -18 0 -74 20 -126 44 l-94 44 50 7 c28 4 61 8 74
11 13 2 45 6 70 10 25 3 57 8 71 10 14 2 46 6 71 9 25 3 56 8 69 10 13 2 46 7
74 10 28 3 53 8 56 11 3 3 5 47 5 97 l0 92 35 17 c19 10 46 15 60 12 14 -2 34
2 45 10 20 15 24 64 25 316 0 37 4 60 9 55 5 -6 23 -55 40 -110 40 -125 96
-242 121 -250 10 -3 22 -15 25 -26 8 -23 61 -64 94 -72 16 -4 30 1 47 18 23
23 24 29 19 115 -2 50 -7 96 -10 101 -4 5 -8 19 -10 30 -3 12 -12 47 -21 78
-9 31 -18 63 -19 71 -47 208 -60 298 -58 410 0 68 9 160 16 167 2 2 17 -1 33
-8 48 -18 143 -13 209 10 33 12 78 24 101 25 101 8 127 53 123 216 0 11 1 32
2 46 2 35 -11 45 -67 48 -36 2 -48 7 -45 17 2 8 6 25 10 39 4 14 6 31 5 38 -1
6 -2 21 -3 32 -2 29 -37 60 -68 60 -58 0 -70 -29 -42 -101 l17 -46 -66 -71
c-86 -90 -125 -104 -202 -69 -14 6 -37 19 -52 29 l-26 18 25 50 c29 58 33 147
9 203 -9 22 -10 39 -5 50 9 15 5 104 -7 139 -3 10 -14 23 -25 28 -16 9 -19 7
-19 -9 0 -33 -17 -33 -53 -1 -22 19 -46 30 -64 30 -18 0 -41 10 -57 25 -15 14
-28 25 -29 25 -1 -1 -22 -12 -47 -25z m-1395 -990 c0 -69 -3 -125 -7 -125 -3
0 -14 23 -23 51 -21 63 -16 150 10 179 10 11 19 20 19 20 1 0 1 -56 1 -125z
m145 -890 c27 -14 28 -16 17 -51 -40 -132 -269 -146 -491 -31 -34 17 -77 37
-96 44 -62 22 103 5 206 -21 148 -37 276 -17 306 49 13 29 19 30 58 10z m-445
-135 c3 -6 -1 -7 -9 -4 -18 7 -21 14 -7 14 6 0 13 -4 16 -10z"/>
<path d="M920 2269 c7 -11 14 -18 17 -15 8 8 -5 36 -17 36 -7 0 -7 -6 0 -21z"/>
<path d="M1087 2261 c-3 -14 0 -21 9 -21 16 0 18 9 5 28 -6 10 -10 9 -14 -7z"/>
<path d="M1257 2252 c-10 -11 -14 -23 -9 -26 12 -7 35 19 30 34 -2 7 -11 3
-21 -8z"/>
<path d="M1331 2241 c-12 -11 -18 -22 -13 -25 9 -6 21 4 36 32 10 17 3 15 -23
-7z"/>
<path d="M1436 2156 c-54 -29 -93 -56 -88 -60 9 -5 202 99 202 110 0 9 -20 0
-114 -50z"/>
<path d="M1354 2051 c3 -5 15 -7 26 -4 28 7 25 13 -6 13 -14 0 -23 -4 -20 -9z"/>
<path d="M1360 2001 c0 -17 14 -19 55 -6 l40 13 -47 1 c-27 1 -48 -3 -48 -8z"/>
<path d="M1370 1890 c0 -5 11 -12 25 -15 14 -3 37 -7 51 -10 42 -9 129 -17
124 -12 -5 5 -175 47 -191 47 -5 0 -9 -4 -9 -10z"/>
<path d="M1360 1778 c0 -7 27 -28 60 -46 78 -43 78 -28 0 21 -35 21 -60 32
-60 25z"/>
</g>
</svg>
